<svg width="20" height="20" viewBox="0 0 20 20" fill="none" xmlns="http://www.w3.org/2000/svg">
<path fill-rule="evenodd" clip-rule="evenodd" d="M12.6976 1.58667H16.6655C17.1038 1.58667 17.4591 1.94189 17.4591 2.38008V6.34711C17.4591 6.7853 17.1038 7.14052 16.6655 7.14052C16.2273 7.14052 15.872 6.7853 15.872 6.34711V4.29219L11.6739 8.49725C11.5249 8.64745 11.3221 8.73194 11.1105 8.73194C10.8989 8.73194 10.696 8.64745 10.547 8.49725C10.3968 8.34827 10.3123 8.14548 10.3123 7.93393C10.3123 7.72238 10.3968 7.51959 10.547 7.37061L14.753 3.17348H12.6976C12.2594 3.17348 11.9041 2.81826 11.9041 2.38008C11.9041 1.94189 12.2594 1.58667 12.6976 1.58667ZM8.73373 11.1073C8.73373 10.8958 8.64922 10.693 8.49899 10.544C8.34998 10.3938 8.14715 10.3093 7.93555 10.3093C7.72395 10.3093 7.52111 10.3938 7.37211 10.544L3.17407 14.7491V12.6942C3.17407 12.256 2.81877 11.9008 2.38049 11.9008C1.94221 11.9008 1.58691 12.256 1.58691 12.6942V16.6612C1.58691 17.0994 1.94221 17.4546 2.38049 17.4546H6.34839C6.78667 17.4546 7.14197 17.0994 7.14197 16.6612C7.14197 16.223 6.78667 15.8678 6.34839 15.8678H4.29302L8.49899 11.6707C8.64922 11.5217 8.73373 11.3189 8.73373 11.1073Z" fill="white"/>
</svg>
