<svg width="31" height="31" viewBox="0 0 31 31" fill="none" xmlns="http://www.w3.org/2000/svg">
<path fill-rule="evenodd" clip-rule="evenodd" d="M26.8407 11.4719L25.1908 10.9304L25.9716 9.39421C26.2199 8.90953 26.1284 8.32019 25.7449 7.93353L22.294 4.47072C21.9072 4.08728 21.3177 3.99583 20.833 4.24406L19.2964 5.03736L18.7548 3.4004C18.5793 2.85977 18.0632 2.50377 17.4953 2.53155H12.6716C12.1037 2.50377 11.5876 2.85977 11.4121 3.4004L10.9335 5.03736L9.39691 4.24406C8.91213 3.99583 8.32267 4.08728 7.93592 4.47072L4.47236 7.93353C4.08883 8.32019 3.99737 8.90953 4.24566 9.39421L5.03913 10.9304L3.40181 11.4719C2.86107 11.6474 2.50498 12.1634 2.53277 12.7311V17.6168C2.50498 18.1845 2.86107 18.7005 3.40181 18.876L5.03913 19.4175L4.25825 20.9537C4.00996 21.4384 4.10143 22.0277 4.48496 22.4144L7.93592 25.7513C8.32267 26.1347 8.91213 26.2262 9.39691 25.9779L10.9335 25.1846L11.4751 26.8216C11.6506 27.3622 12.1667 27.7182 12.7345 27.6904H17.6213C18.1891 27.7182 18.7052 27.3622 18.8808 26.8216L19.4223 25.1846L20.9589 25.9653C21.4437 26.2136 22.0332 26.1221 22.4199 25.7387L25.8835 22.2759C26.267 21.8892 26.3585 21.2999 26.1102 20.8152L25.1908 19.2916L26.8281 18.7501C27.3688 18.5746 27.7249 18.0586 27.6971 17.4909V12.6681C27.6985 12.1268 27.3537 11.6451 26.8407 11.4719ZM8.81748 15.1104C8.81748 11.6332 11.6369 8.81434 15.1149 8.81434C16.785 8.81434 18.3868 9.47767 19.5678 10.6584C20.7488 11.8391 21.4122 13.4406 21.4122 15.1104C21.4122 18.5876 18.5928 21.4064 15.1149 21.4064C11.6369 21.4064 8.81748 18.5876 8.81748 15.1104ZM11.3396 15.1103C11.3396 17.1966 13.0313 18.8879 15.1181 18.8879C16.1202 18.8879 17.0812 18.4899 17.7898 17.7815C18.4984 17.073 18.8965 16.1122 18.8965 15.1103C18.8965 13.024 17.2048 11.3327 15.1181 11.3327C13.0313 11.3327 11.3396 13.024 11.3396 15.1103ZM24.4214 16.8986L25.1897 16.6467V13.5743L24.4214 13.3224C23.7222 13.0967 23.1564 12.577 22.8723 11.8995C22.5932 11.2193 22.6254 10.4511 22.9604 9.79665L23.3257 9.06631L21.1594 6.90048L20.4289 7.26565C19.7742 7.59569 19.0081 7.62414 18.3307 7.34356C17.6533 7.06298 17.1318 6.50123 16.9023 5.80497L16.6505 5.03686H13.5773L13.3254 5.80497C13.096 6.50123 12.5745 7.06298 11.8971 7.34356C11.2197 7.62414 10.4536 7.59569 9.7989 7.26565L9.0684 6.90048L6.9021 9.06631L7.26735 9.79665C7.60234 10.4511 7.63455 11.2193 7.35551 11.8995C7.07142 12.577 6.5056 13.0967 5.80636 13.3224L5.03808 13.5743V16.6467L5.80636 16.8986C6.5056 17.1243 7.07142 17.644 7.35551 18.3215C7.63455 19.0017 7.60234 19.7698 7.26735 20.4243L6.9021 21.1547L9.0684 23.3205L9.7989 22.9553C10.4536 22.6253 11.2197 22.5968 11.8971 22.8774C12.5745 23.158 13.096 23.7197 13.3254 24.416L13.5773 25.1841H16.6505L16.9023 24.416C17.1318 23.7197 17.6533 23.158 18.3307 22.8774C19.0081 22.5968 19.7742 22.6253 20.4289 22.9553L21.1594 23.3205L23.3257 21.1547L22.9604 20.4243C22.6254 19.7698 22.5932 19.0017 22.8723 18.3215C23.1564 17.644 23.7222 17.1243 24.4214 16.8986Z" fill="#CC502F"/>
</svg>
